<svg width="28" height="28" viewBox="0 0 28 28" fill="none" xmlns="http://www.w3.org/2000/svg">
<g filter="url(#filter0_d_17_300)">
<path d="M14 10C14.4602 10 14.8333 9.62694 14.8333 9.16671C14.8333 8.70647 14.4602 8.33337 14 8.33337C13.5398 8.33337 13.1667 8.70647 13.1667 9.16671C13.1667 9.62694 13.5398 10 14 10Z" fill="white"/>
<path d="M17.3333 10C17.7936 10 18.1667 9.62694 18.1667 9.16671C18.1667 8.70647 17.7936 8.33337 17.3333 8.33337C16.8731 8.33337 16.5 8.70647 16.5 9.16671C16.5 9.62694 16.8731 10 17.3333 10Z" fill="white"/>
<path d="M10.6666 10C11.1269 10 11.5 9.62694 11.5 9.16671C11.5 8.70647 11.1269 8.33337 10.6666 8.33337C10.2064 8.33337 9.83331 8.70647 9.83331 9.16671C9.83331 9.62694 10.2064 10 10.6666 10Z" fill="white"/>
<path d="M19.8333 2.5H8.16666C7.50362 2.5 6.86773 2.76339 6.39889 3.23223C5.93005 3.70107 5.66666 4.33696 5.66666 5V17.5C5.66691 17.6477 5.7064 17.7926 5.78107 17.92C5.85575 18.0474 5.96293 18.1526 6.09166 18.225C6.2162 18.2956 6.35683 18.3329 6.49999 18.3333C6.64956 18.3333 6.79636 18.293 6.92499 18.2167L10.6667 15.95C10.805 15.8677 10.9642 15.8271 11.125 15.8333H19.8333C20.4964 15.8333 21.1322 15.5699 21.6011 15.1011C22.0699 14.6323 22.3333 13.9964 22.3333 13.3333V5C22.3333 4.33696 22.0699 3.70107 21.6011 3.23223C21.1322 2.76339 20.4964 2.5 19.8333 2.5ZM20.6667 13.3333C20.6667 13.5543 20.5789 13.7663 20.4226 13.9226C20.2663 14.0789 20.0543 14.1667 19.8333 14.1667H11.125C10.6698 14.1663 10.2232 14.2902 9.83332 14.525L7.33332 16.025V5C7.33332 4.77899 7.42112 4.56702 7.5774 4.41074C7.73368 4.25446 7.94564 4.16667 8.16666 4.16667H19.8333C20.0543 4.16667 20.2663 4.25446 20.4226 4.41074C20.5789 4.56702 20.6667 4.77899 20.6667 5V13.3333Z" fill="white"/>
</g>
<defs>
<filter id="filter0_d_17_300" x="0" y="0" width="28" height="28" filterUnits="userSpaceOnUse" color-interpolation-filters="sRGB">
<feFlood flood-opacity="0" result="BackgroundImageFix"/>
<feColorMatrix in="SourceAlpha" type="matrix" values="0 0 0 0 0 0 0 0 0 0 0 0 0 0 0 0 0 0 127 0" result="hardAlpha"/>
<feOffset dy="4"/>
<feGaussianBlur stdDeviation="2"/>
<feComposite in2="hardAlpha" operator="out"/>
<feColorMatrix type="matrix" values="0 0 0 0 0 0 0 0 0 0 0 0 0 0 0 0 0 0 0.25 0"/>
<feBlend mode="normal" in2="BackgroundImageFix" result="effect1_dropShadow_17_300"/>
<feBlend mode="normal" in="SourceGraphic" in2="effect1_dropShadow_17_300" result="shape"/>
</filter>
</defs>
</svg>
